<svg xmlns="http://www.w3.org/2000/svg" viewBox="0 0 400 240"><path d="M0 0H400V240H0Z" fill="#F2EAE8"/><path d="M69 150C72 76 131 29 209 43C258 33 326 79 320 144C333 192 265 210 211 199C138 219 78 211 69 150Z" fill="#E7D5D0"/><path d="M242 59a26 26 0 1 0 52 0a26 26 0 1 0 -52 0Z" fill="#D9AA57"/><path d="M80 177L168 58L254 177Z" fill="#527A65"/><path d="M190 177L258 84L326 177Z" fill="#9DB99D"/><path d="M138 98L168 58L199 100L178 91L165 102L153 89Z" fill="#FFF9ED"/><path d="M85 174Q198 158 319 177L287 215H110Z" fill="#7EA9B4"/><path d="M137 185H227M193 199H267" fill="none" stroke="#FFF9ED" stroke-width="3" stroke-linecap="round" stroke-linejoin="round"/><path d="M91 178L118 136L145 178Z" fill="#244D3E"/><path d="M115 173H121Q121 173 121 173V194Q121 194 121 194H115Q115 194 115 194V173Q115 173 115 173Z" fill="#927459"/></svg>
