<svg xmlns="http://www.w3.org/2000/svg" viewBox="0 0 400 240"><path d="M0 0H400V240H0Z" fill="#ECF0ED"/><path d="M82 182C47 137 78 56 148 47C211 19 290 49 314 102C348 163 287 209 216 207C161 218 111 210 82 182Z" fill="#D5E2DB"/><path d="M105 204a95 9 0 1 0 190 0a95 9 0 1 0 -190 0Z" fill="#0000000C"/><path d="M112 117H208V164Q165 208 120 171Z" fill="#7EA9B4"/><path d="M122 121Q82 92 100 82Q113 77 136 99" fill="none" stroke="#527A65" stroke-width="8" stroke-linecap="round" stroke-linejoin="round"/><path d="M204 132L251 102L263 110L213 165Z" fill="#7EA9B4"/><path d="M258 104L273 111" fill="none" stroke="#527A65" stroke-width="7" stroke-linecap="round" stroke-linejoin="round"/><path d="M275 125L280 135M288 119L297 128M299 115L309 122" fill="none" stroke="#7EA9B4" stroke-width="3" stroke-linecap="round" stroke-linejoin="round"/><path d="M259 171H308L300 207H267Z" fill="#BF7057"/><path d="M284 171V119" fill="none" stroke="#527A65" stroke-width="3" stroke-linecap="round" stroke-linejoin="round"/><path d="M283 151C263.75 148.8 261.55 135.05 262.65 132.85C278.05 133.4 284.1 143.85 283 151Z" fill="#9DB99D"/><path d="M284 139C301.5 137 303.5 124.5 302.5 122.5C288.5 123 283 132.5 284 139Z" fill="#527A65"/><path d="M126 132a33 8 0 1 0 66 0a33 8 0 1 0 -66 0Z" fill="#DCE9E8"/><path d="M189 57Q191 63 197 65Q191 67 189 73Q187 67 181 65Q187 63 189 57Z" fill="#D9AA57"/></svg>
